<?xml version="1.0" encoding="UTF-8"?>
<!DOCTYPE svg PUBLIC "-//W3C//DTD SVG 1.1//EN" "http://www.w3.org/Graphics/SVG/1.1/DTD/svg11.dtd">
<!-- Creator: CorelDRAW X6 -->
<svg xmlns="http://www.w3.org/2000/svg" xml:space="preserve" width="170px" height="243px" version="1.1" style="shape-rendering:geometricPrecision; text-rendering:geometricPrecision; image-rendering:optimizeQuality; fill-rule:evenodd; clip-rule:evenodd"
viewBox="0 0 5788 8268"
 xmlns:xlink="http://www.w3.org/1999/xlink">
 <defs>
  <style type="text/css">
   <![CDATA[
    .fil0 {fill:#FEFEFE;fill-rule:nonzero}
   ]]>
  </style>
 </defs>
 <g id="Слой_x0020_1">
  <metadata id="CorelCorpID_0Corel-Layer"/>
  <g id="_525266632">
   <polygon class="fil0" points="1233,5708 116,8265 115,8268 111,8268 9,8268 0,8268 4,8260 2875,1725 2877,1721 2881,1721 2908,1721 2912,1721 2914,1725 5784,8260 5788,8268 5778,8268 5677,8268 5673,8268 5672,8265 4545,5708 4545,5708 4508,5616 2889,1927 1270,5616 1233,5708 "/>
   <path class="fil0" d="M3932 0c56,0 109,11 158,31 51,21 96,52 134,90 39,39 69,84 90,135 21,49 32,102 32,158 0,56 -11,110 -32,159 -21,50 -51,96 -90,134 -38,38 -83,69 -134,90 -49,20 -102,31 -158,31 -57,0 -110,-11 -159,-31 -50,-21 -96,-52 -134,-90 -39,-38 -69,-84 -90,-134 -21,-49 -32,-103 -32,-159 0,-56 11,-109 32,-158 21,-51 51,-96 90,-135 38,-38 84,-69 134,-90 49,-20 102,-31 159,-31zm227 187c-30,-29 -65,-53 -105,-70 -37,-15 -79,-24 -122,-24 -44,0 -85,9 -123,24 -40,17 -75,41 -105,70 -29,30 -53,65 -69,104 -16,38 -25,80 -25,123 0,44 9,85 25,123 16,39 40,75 69,104 30,30 65,54 105,70 38,16 79,24 123,24 43,0 85,-8 122,-24 40,-16 75,-40 105,-70 29,-29 53,-65 69,-104 16,-38 25,-79 25,-123 0,-43 -9,-85 -25,-123 -16,-39 -40,-74 -69,-104z"/>
   <path class="fil0" d="M1896 0c57,0 110,11 159,31 51,21 96,52 134,90 39,39 69,84 90,135 21,49 32,102 32,158 0,56 -11,110 -32,159 -21,50 -51,96 -90,134 -38,38 -83,69 -134,90 -49,20 -102,31 -159,31 -56,0 -109,-11 -158,-31 -50,-21 -96,-52 -134,-90 -39,-38 -69,-84 -90,-134 -21,-49 -32,-103 -32,-159 0,-56 11,-109 32,-158 21,-51 51,-96 90,-135 38,-38 84,-69 134,-90 49,-20 102,-31 158,-31zm228 187c-30,-29 -65,-53 -105,-70 -37,-15 -79,-24 -123,-24 -43,0 -84,9 -122,24 -39,17 -75,41 -105,70 -29,30 -53,65 -69,104 -16,38 -25,80 -25,123 0,44 9,85 25,123 16,39 40,75 69,104 30,30 66,54 105,70 38,16 79,24 122,24 44,0 86,-8 123,-24 40,-16 75,-40 105,-70 29,-29 53,-65 69,-104 16,-38 25,-79 25,-123 0,-43 -9,-85 -25,-123 -16,-39 -40,-74 -69,-104z"/>
  </g>
 </g>
</svg>
