<?xml version="1.0" encoding="UTF-8"?>
<!DOCTYPE svg PUBLIC "-//W3C//DTD SVG 1.1//EN" "http://www.w3.org/Graphics/SVG/1.1/DTD/svg11.dtd">
<!-- Creator: CorelDRAW X6 -->
<svg xmlns="http://www.w3.org/2000/svg" xml:space="preserve" width="114px" height="192px" version="1.1" style="shape-rendering:geometricPrecision; text-rendering:geometricPrecision; image-rendering:optimizeQuality; fill-rule:evenodd; clip-rule:evenodd"
viewBox="0 0 22822 38485"
 xmlns:xlink="http://www.w3.org/1999/xlink">
 <defs>
  <style type="text/css">
   <![CDATA[
    .fil0 {fill:#FEFEFE;fill-rule:nonzero}
   ]]>
  </style>
 </defs>
 <g id="Слой_x0020_1">
  <metadata id="CorelCorpID_0Corel-Layer"/>
  <path class="fil0" d="M14865 37238c1578,-417 2919,-1043 4025,-1876l9 -7c1099,-831 1924,-1860 2474,-3088 552,-1233 828,-2668 828,-4301 0,-1413 -276,-2667 -827,-3767 -551,-1098 -1378,-2042 -2483,-2831 -927,-661 -2015,-1181 -3262,-1562 -1247,-382 -2655,-625 -4220,-732l-35 -2 0 -35 0 -692 0 -32 34 -4c1191,-116 2293,-375 3307,-781 1006,-402 1924,-949 2752,-1644l0 0c1034,-851 1808,-1820 2326,-2906 516,-1085 773,-2289 773,-3611 0,-1469 -226,-2751 -679,-3847 -453,-1095 -1132,-2003 -2036,-2726 -904,-723 -2068,-1266 -3492,-1630 -1424,-362 -3107,-544 -5048,-544 -1319,0 -2701,10 -4146,28 -1443,17 -2957,44 -4544,78l0 11301 0 6395 0 547 0 3301 0 15480c635,1 1292,5 1967,14 682,11 1376,25 2084,43 729,19 1488,34 2279,43 782,9 1603,14 2466,14 2054,0 3870,-208 5448,-626l0 0zm1999 -17740c1287,471 2378,1112 3274,1927 894,812 1565,1769 2012,2870 448,1099 672,2342 672,3728 0,1752 -293,3283 -876,4594 -584,1310 -1460,2398 -2629,3263 -1169,868 -2565,1518 -4188,1953 -1621,433 -3470,652 -5548,652 -919,0 -1805,-5 -2660,-16 -846,-9 -1652,-23 -2415,-41 -764,-20 -1518,-34 -2263,-43 -738,-9 -1473,-14 -2207,-14l-36 0 0 -36 0 -38191 0 -38 36 0c715,0 1433,-4 2154,-13 727,-8 1464,-21 2209,-36 764,-20 1565,-34 2402,-43 844,-10 1717,-14 2616,-14 7847,0 11770,3143 11770,9417 0,1316 -215,2503 -644,3562 -430,1059 -1074,1992 -1932,2796l0 0c-860,804 -1806,1437 -2839,1903 -1021,460 -2128,755 -3318,883l0 47c1665,127 3134,424 4411,890l-1 0z"/>
 </g>
</svg>
