<?xml version="1.0" encoding="UTF-8"?>
<!DOCTYPE svg PUBLIC "-//W3C//DTD SVG 1.1//EN" "http://www.w3.org/Graphics/SVG/1.1/DTD/svg11.dtd">
<!-- Creator: CorelDRAW X6 -->
<svg xmlns="http://www.w3.org/2000/svg" xml:space="preserve" width="151px" height="192px" version="1.1" style="shape-rendering:geometricPrecision; text-rendering:geometricPrecision; image-rendering:optimizeQuality; fill-rule:evenodd; clip-rule:evenodd"
viewBox="0 0 6624 8426"
 xmlns:xlink="http://www.w3.org/1999/xlink">
 <defs>
  <style type="text/css">
   <![CDATA[
    .fil0 {fill:#FEFEFE;fill-rule:nonzero}
   ]]>
  </style>
 </defs>
 <g id="Слой_x0020_1">
  <metadata id="CorelCorpID_0Corel-Layer"/>
  <path class="fil0" d="M1905 136c-81,0 -200,2 -358,6 -159,4 -357,9 -596,17 -119,4 -248,7 -385,9 -137,2 -280,3 -431,3l0 8095 1709 24 0 0c751,0 1414,-99 1987,-297 573,-199 1058,-496 1455,-893 401,-401 701,-853 902,-1357 200,-504 300,-1060 300,-1668 0,-571 -94,-1092 -283,-1562 -188,-470 -471,-889 -847,-1258l0 0c-373,-373 -847,-653 -1423,-839 -575,-187 -1252,-280 -2030,-280l0 0zm-1838 8265l-59 0 -8 0 0 -8 0 -8349 0 -8 8 0 120 0c159,0 306,-1 440,-3 144,-2 275,-5 394,-8 238,-8 438,-15 599,-19 162,-4 285,-6 367,-6 812,0 1519,103 2120,311 601,207 1097,518 1488,933l0 0c362,378 634,803 816,1275 181,472 272,991 272,1556 0,630 -104,1205 -311,1727 -207,522 -518,990 -931,1404l0 0c-415,407 -918,712 -1510,915 -591,203 -1271,305 -2039,305 -177,0 -343,-1 -496,-3 -151,-2 -288,-5 -411,-9 -123,-5 -256,-8 -399,-10 -142,-2 -295,-3 -460,-3l0 0z"/>
 </g>
</svg>
