<?xml version="1.0" encoding="UTF-8"?>
<!DOCTYPE svg PUBLIC "-//W3C//DTD SVG 1.1//EN" "http://www.w3.org/Graphics/SVG/1.1/DTD/svg11.dtd">
<!-- Creator: CorelDRAW X6 -->
<svg xmlns="http://www.w3.org/2000/svg" xml:space="preserve" width="283px" height="405px" version="1.1" style="shape-rendering:geometricPrecision; text-rendering:geometricPrecision; image-rendering:optimizeQuality; fill-rule:evenodd; clip-rule:evenodd"
viewBox="0 0 28300 40429"
 xmlns:xlink="http://www.w3.org/1999/xlink">
 <defs>
  <style type="text/css">
   <![CDATA[
    .fil0 {fill:white;fill-rule:nonzero}
   ]]>
  </style>
 </defs>
 <g id="Слой_x0020_1">
  <metadata id="CorelCorpID_0Corel-Layer"/>
  <g id="_364989976">
   <polygon class="fil0" points="6030,27912 568,40411 560,40429 540,40429 46,40429 0,40429 19,40387 14057,8434 14065,8416 14085,8416 14220,8416 14240,8416 14248,8434 28281,40387 28300,40429 28254,40429 27760,40429 27740,40429 27732,40411 22223,27912 22223,27911 22041,27459 14127,9422 6212,27459 6030,27911 "/>
   <path class="fil0" d="M19224 0c274,0 536,55 774,153 248,103 472,254 658,440 187,187 337,410 440,658 99,239 153,500 153,774 0,275 -54,536 -153,775 -103,248 -253,471 -440,658 -186,186 -410,337 -658,439 -238,99 -500,154 -774,154 -274,0 -536,-55 -774,-154 -248,-102 -472,-253 -658,-439 -187,-187 -337,-410 -440,-658 -99,-239 -153,-500 -153,-775 0,-274 54,-535 153,-774 103,-248 253,-471 440,-658 186,-186 410,-337 658,-440 238,-98 500,-153 774,-153zm1110 915c-144,-145 -317,-262 -509,-341 -185,-77 -388,-119 -601,-119 -213,0 -416,42 -601,119 -192,79 -365,196 -510,341 -144,145 -261,318 -341,510 -76,185 -119,388 -119,600 0,213 43,416 119,601 80,192 197,365 341,510 145,145 318,262 510,341 185,77 388,119 601,119 213,0 416,-42 601,-119 192,-79 365,-196 509,-341 145,-145 262,-318 342,-510 76,-185 118,-388 118,-601 0,-212 -42,-415 -118,-600 -80,-192 -197,-365 -342,-510z"/>
   <path class="fil0" d="M9274 0c274,0 535,55 774,153 248,103 471,254 658,440 186,187 337,410 440,658 98,239 153,500 153,774 0,275 -55,536 -153,775 -103,248 -254,471 -440,658 -187,186 -410,337 -658,439 -239,99 -500,154 -774,154 -274,0 -536,-55 -775,-154 -248,-102 -471,-253 -658,-439 -186,-187 -337,-410 -439,-658 -99,-239 -154,-500 -154,-775 0,-274 55,-535 154,-774 102,-248 253,-471 439,-658 187,-186 410,-337 658,-440 239,-98 501,-153 775,-153zm1110 915c-145,-145 -318,-262 -510,-341 -185,-77 -387,-119 -600,-119 -213,0 -416,42 -601,119 -192,79 -365,196 -510,341 -145,145 -261,318 -341,510 -77,185 -119,388 -119,600 0,213 42,416 119,601 80,192 196,365 341,510 145,145 318,262 510,341 185,77 388,119 601,119 213,0 415,-42 600,-119 192,-79 365,-196 510,-341 145,-145 262,-318 341,-510 77,-185 119,-388 119,-601 0,-212 -42,-415 -119,-600 -79,-192 -196,-365 -341,-510z"/>
  </g>
 </g>
</svg>
