<?xml version="1.0" encoding="UTF-8"?>
<!DOCTYPE svg PUBLIC "-//W3C//DTD SVG 1.1//EN" "http://www.w3.org/Graphics/SVG/1.1/DTD/svg11.dtd">
<!-- Creator: CorelDRAW X6 -->
<svg xmlns="http://www.w3.org/2000/svg" xml:space="preserve" width="124px" height="191px" version="1.1" style="shape-rendering:geometricPrecision; text-rendering:geometricPrecision; image-rendering:optimizeQuality; fill-rule:evenodd; clip-rule:evenodd"
viewBox="0 0 3912 6045"
 xmlns:xlink="http://www.w3.org/1999/xlink">
 <defs>
  <style type="text/css">
   <![CDATA[
    .fil0 {fill:#FEFEFE;fill-rule:nonzero}
   ]]>
  </style>
 </defs>
 <g id="Слой_x0020_1">
  <metadata id="CorelCorpID_0Corel-Layer"/>
  <path class="fil0" d="M2310 3105c-191,99 -408,171 -651,214l2245 2716 8 10 -13 0 -121 0 -2 0 -2 -2 -2233 -2705 -1 0 -6 0 0 -6 0 -94 0 -6 6 0c193,-17 378,-64 554,-140 177,-76 345,-180 504,-314l0 0c371,-309 557,-686 557,-1131 0,-517 -164,-904 -492,-1162 -329,-258 -822,-387 -1480,-387 -113,0 -259,1 -440,4 -181,3 -396,7 -645,12l0 2125 0 1007 0 86 0 863 0 1844 0 6 -6 0 -86 0 -6 0 0 -6 0 -6016 0 -6 6 0c116,0 228,-1 335,-2 109,-2 215,-4 318,-6 103,-3 199,-5 288,-7 90,-1 171,-2 245,-2 686,0 1201,138 1545,414 343,276 515,690 515,1242 0,195 -36,381 -110,558 -73,177 -183,344 -330,503l0 0c-140,158 -308,287 -502,388l0 0z"/>
 </g>
</svg>
